<?xml version="1.0" encoding="utf-8"?>
<!-- Generator: Adobe Illustrator 15.0.0, SVG Export Plug-In . SVG Version: 6.00 Build 0)  -->
<!DOCTYPE svg PUBLIC "-//W3C//DTD SVG 1.1//EN" "http://www.w3.org/Graphics/SVG/1.1/DTD/svg11.dtd">
<svg version="1.1" id="Layer_1" xmlns:sketch="http://www.bohemiancoding.com/sketch/ns"
	 xmlns="http://www.w3.org/2000/svg" xmlns:xlink="http://www.w3.org/1999/xlink" x="0px" y="0px" width="420px" height="1160px"
	 viewBox="0 0 420 1160" enable-background="new 0 0 420 1160" xml:space="preserve">
<filter  height="200%" width="200%" y="-50%" x="-50%" id="filter-4" filterUnits="objectBoundingBox">
	<feMorphology  result="shadowSpreadInner1" in="SourceAlpha" radius="2" operator="dilate"></feMorphology>
	<feOffset  dy="1" result="shadowOffsetInner1" in="shadowSpreadInner1" dx="0"></feOffset>
	<feGaussianBlur  result="shadowBlurInner1" in="shadowOffsetInner1" stdDeviation="1.5"></feGaussianBlur>
	<feComposite  result="shadowInnerInner1" in="shadowBlurInner1" k3="1" in2="SourceAlpha" k2="-1" operator="arithmetic">
		</feComposite>
	
		<feColorMatrix  type="matrix" result="shadowMatrixInner1" values="0 0 0 0 0   0 0 0 0 0   0 0 0 0 0  0 0 0 0.105 0" in="shadowInnerInner1">
		</feColorMatrix>
	<feMerge>
		<feMergeNode  in="SourceGraphic"></feMergeNode>
		<feMergeNode  in="shadowMatrixInner1"></feMergeNode>
	</feMerge>
</filter>
<filter  height="200%" width="200%" y="-50%" x="-50%" id="filter-3" filterUnits="objectBoundingBox">
	<feMorphology  result="shadowSpreadInner1" in="SourceAlpha" radius="2" operator="dilate"></feMorphology>
	<feOffset  dy="1" result="shadowOffsetInner1" in="shadowSpreadInner1" dx="0"></feOffset>
	<feGaussianBlur  result="shadowBlurInner1" in="shadowOffsetInner1" stdDeviation="1.5"></feGaussianBlur>
	<feComposite  result="shadowInnerInner1" in="shadowBlurInner1" k3="1" in2="SourceAlpha" k2="-1" operator="arithmetic">
		</feComposite>
	
		<feColorMatrix  type="matrix" result="shadowMatrixInner1" values="0 0 0 0 0   0 0 0 0 0   0 0 0 0 0  0 0 0 0.105 0" in="shadowInnerInner1">
		</feColorMatrix>
	<feMerge>
		<feMergeNode  in="SourceGraphic"></feMergeNode>
		<feMergeNode  in="shadowMatrixInner1"></feMergeNode>
	</feMerge>
</filter>
<filter  height="200%" width="200%" y="-50%" x="-50%" id="filter-2" filterUnits="objectBoundingBox">
	<feMorphology  result="shadowSpreadInner1" in="SourceAlpha" radius="2" operator="dilate"></feMorphology>
	<feOffset  dy="1" result="shadowOffsetInner1" in="shadowSpreadInner1" dx="0"></feOffset>
	<feGaussianBlur  result="shadowBlurInner1" in="shadowOffsetInner1" stdDeviation="1.5"></feGaussianBlur>
	<feComposite  result="shadowInnerInner1" in="shadowBlurInner1" k3="1" in2="SourceAlpha" k2="-1" operator="arithmetic">
		</feComposite>
	
		<feColorMatrix  type="matrix" result="shadowMatrixInner1" values="0 0 0 0 0   0 0 0 0 0   0 0 0 0 0  0 0 0 0.105 0" in="shadowInnerInner1">
		</feColorMatrix>
	<feMerge>
		<feMergeNode  in="SourceGraphic"></feMergeNode>
		<feMergeNode  in="shadowMatrixInner1"></feMergeNode>
	</feMerge>
</filter>
<filter  height="200%" width="200%" y="-50%" x="-50%" id="filter-1" filterUnits="objectBoundingBox">
	<feMorphology  result="shadowSpreadInner1" in="SourceAlpha" radius="2" operator="dilate"></feMorphology>
	<feOffset  dy="1" result="shadowOffsetInner1" in="shadowSpreadInner1" dx="0"></feOffset>
	<feGaussianBlur  result="shadowBlurInner1" in="shadowOffsetInner1" stdDeviation="1.5"></feGaussianBlur>
	<feComposite  result="shadowInnerInner1" in="shadowBlurInner1" k3="1" in2="SourceAlpha" k2="-1" operator="arithmetic">
		</feComposite>
	
		<feColorMatrix  type="matrix" result="shadowMatrixInner1" values="0 0 0 0 0   0 0 0 0 0   0 0 0 0 0  0 0 0 0.105 0" in="shadowInnerInner1">
		</feColorMatrix>
	<feMerge>
		<feMergeNode  in="SourceGraphic"></feMergeNode>
		<feMergeNode  in="shadowMatrixInner1"></feMergeNode>
	</feMerge>
</filter>
<title>sprite</title>
<desc>Created with Sketch.</desc>
<g id="Slices" transform="translate(-341.000000, -40.000000)" sketch:type="MSLayerGroup">
</g>
<rect id="base" x="-341" y="-40" sketch:type="MSShapeGroup" fill="none" width="801" height="1698">
</rect>
<path id="linkedin:hover" sketch:type="MSShapeGroup" fill="#FFFFFF" d="M168,150.99h-7v-20h7V150.99L168,150.99z M163.99,128.17
	c-2.2,0-3.99-1.61-3.99-3.58c0-1.99,1.79-3.59,3.99-3.59c2.199,0,3.989,1.6,3.989,3.59C167.98,126.56,166.19,128.17,163.99,128.17
	L163.99,128.17z M185,150.99V139.9c0-2.27-0.521-4.06-3.2-4.06s-3.8,2.28-3.8,4.61v10.54h-7v-20h7v2.74
	c1.88-2.39,3.51-3.19,6.479-3.19c2.96,0,7.521,1.38,7.521,9.4v11.05H185L185,150.99z"/>
<path id="linkedin" sketch:type="MSShapeGroup" fill="#72864B" d="M168,110.99h-7v-20h7V110.99L168,110.99z M163.99,88.17
	c-2.2,0-3.99-1.61-3.99-3.58c0-1.99,1.79-3.59,3.99-3.59c2.199,0,3.989,1.6,3.989,3.59C167.98,86.56,166.19,88.17,163.99,88.17
	L163.99,88.17z M185,110.99V99.9c0-2.27-0.521-4.06-3.2-4.06s-3.8,2.28-3.8,4.61v10.54h-7v-20h7v2.74
	c1.88-2.39,3.51-3.19,6.479-3.19c2.96,0,7.521,1.38,7.521,9.4v11.05H185L185,110.99z"/>
<path id="googleplus:hover" sketch:type="MSShapeGroup" fill="#FFFFFF" d="M92.95,129.16c-0.37-2.8-2.54-5.05-4.71-5.12
	c-2.171-0.06-3.631,2.09-3.261,4.89c0.38,2.8,2.45,5.13,4.62,5.19C91.77,134.19,93.33,131.97,92.95,129.16L92.95,129.16z
	 M89.31,139.57c-3.24-0.04-6.14,1.94-6.14,4.31c0,2.42,2.34,4.19,5.58,4.19c4.55,0,6.14-1.65,6.14-4.07c0-0.29-0.04-0.57-0.1-0.85
	c-0.36-1.37-1.62-2.05-3.38-3.25C90.77,139.7,90.07,139.58,89.31,139.57L89.31,139.57z M93.17,124c1.78,0.98,2.82,2.58,2.82,4.66
	c0,1.75-1.091,3.6-2.48,4.67c-1.36,1.04-1.62,1.48-1.62,2.37c0,0.76,1.46,2.05,2.22,2.58c2.23,1.55,2.891,2.979,2.891,5.38
	c0,3-2.891,6.34-8.23,6.34c-4.689,0-8.77-2.24-8.77-5.23c0-3.04,3.729-5.98,8.42-5.98c0.51,0,0.979-0.02,1.46-0.02
	c-0.64-0.61-1.15-1.37-1.15-2.3c0-0.55,0.181-1.1,0.431-1.57c-0.25,0.02-0.511-0.02-0.78-0.02c-3.851,0-6.43-2.79-6.43-6.12
	c0-3.26,3.56-6.26,7.35-6.26c2.11,0,8.44-0.46,8.44-0.46L95.85,124H93.17L93.17,124z M107,129v5h-2v-5h-5v-2h5v-5h2v5h5v2H107
	L107,129z"/>
<path id="googleplus" sketch:type="MSShapeGroup" fill="#72864B" d="M92.95,89.16c-0.37-2.8-2.54-5.05-4.71-5.12
	c-2.171-0.06-3.631,2.09-3.261,4.89c0.38,2.8,2.45,5.13,4.62,5.19C91.77,94.19,93.33,91.97,92.95,89.16L92.95,89.16z M89.31,99.57
	c-3.24-0.04-6.14,1.94-6.14,4.31c0,2.42,2.34,4.19,5.58,4.19c4.55,0,6.14-1.65,6.14-4.07c0-0.29-0.04-0.57-0.1-0.85
	c-0.36-1.37-1.62-2.05-3.38-3.25C90.77,99.7,90.07,99.58,89.31,99.57L89.31,99.57z M93.17,84c1.78,0.98,2.82,2.58,2.82,4.66
	c0,1.75-1.091,3.6-2.48,4.67c-1.36,1.04-1.62,1.48-1.62,2.37c0,0.76,1.46,2.05,2.22,2.58C96.34,99.83,97,101.26,97,103.66
	c0,3-2.891,6.34-8.23,6.34c-4.689,0-8.77-2.24-8.77-5.23c0-3.04,3.729-5.98,8.42-5.98c0.51,0,0.979-0.02,1.46-0.02
	c-0.64-0.61-1.15-1.37-1.15-2.3c0-0.55,0.181-1.1,0.431-1.57c-0.25,0.02-0.511-0.02-0.78-0.02c-3.851,0-6.43-2.79-6.43-6.12
	c0-3.26,3.56-6.26,7.35-6.26c2.11,0,8.44-0.46,8.44-0.46L95.85,84H93.17L93.17,84z M107,89v5h-2v-5h-5v-2h5v-5h2v5h5v2H107L107,89z"
	/>
<path id="instagram:hover" sketch:type="MSShapeGroup" fill="#FFFFFF" d="M148,134h-2.95c0.229,0.83,0.75,1.1,0.75,2
	c0,5.41-4.39,9.8-9.8,9.8s-9.8-3.79-9.8-9.2c0-0.9,0.119-1.77,0.35-2.6H124v14c0,0.88,0.72,1,1.6,1h20.8
	c0.88,0,1.601-0.72,1.601-1.6V134L148,134z M148,125.6c0-0.88-0.721-1.6-1.601-1.6h-2.8c-0.88,0-1.6,0.72-1.6,1.6v2.8
	c0,0.88,0.72,1.6,1.6,1.6h2.8c0.88,0,1.601-0.72,1.601-1.6V125.6L148,125.6z M136,129.8c-2.49,0-4.641,1.48-5.62,3.6h-0.01
	l-0.03,0.07c-0.05,0.13-0.11,0.26-0.16,0.4l-0.07,0.19c-0.04,0.14-0.08,0.29-0.119,0.43l-0.051,0.2c-0.029,0.15-0.05,0.3-0.069,0.46
	l-0.03,0.19c-0.03,0.21-0.04,0.44-0.04,0.66c0,3.42,2.78,6.2,6.2,6.2s6.2-2.78,6.2-6.2c0-0.22-0.011-0.45-0.04-0.66l-0.021-0.19
	c-0.03-0.16-0.05-0.31-0.08-0.46l-0.05-0.2c-0.04-0.14-0.08-0.29-0.12-0.43l-0.07-0.19c-0.05-0.14-0.109-0.27-0.159-0.4l-0.03-0.07
	h-0.01C140.64,131.28,138.49,129.8,136,129.8L136,129.8z M148,152h-24c-2.21,0-4-1.79-4-4v-24c0-2.21,1.79-4,4-4h24
	c2.21,0,4,1.79,4,4v24C152,150.21,150.21,152,148,152L148,152z"/>
<path id="instagram" sketch:type="MSShapeGroup" fill="#72864B" d="M148,94h-2.95c0.229,0.83,0.75,1.1,0.75,2
	c0,5.41-4.39,9.8-9.8,9.8s-9.8-3.79-9.8-9.2c0-0.9,0.119-1.77,0.35-2.6H124v14c0,0.88,0.72,1,1.6,1h20.8
	c0.88,0,1.601-0.72,1.601-1.6V94L148,94z M148,85.6c0-0.88-0.721-1.6-1.601-1.6h-2.8c-0.88,0-1.6,0.72-1.6,1.6v2.8
	c0,0.88,0.72,1.6,1.6,1.6h2.8c0.88,0,1.601-0.72,1.601-1.6V85.6L148,85.6z M136,89.8c-2.49,0-4.641,1.48-5.62,3.6h-0.01l-0.03,0.07
	c-0.05,0.13-0.11,0.26-0.16,0.4l-0.07,0.19c-0.04,0.14-0.08,0.29-0.119,0.43l-0.051,0.2c-0.029,0.15-0.05,0.3-0.069,0.46l-0.03,0.19
	c-0.03,0.21-0.04,0.44-0.04,0.66c0,3.42,2.78,6.2,6.2,6.2s6.2-2.78,6.2-6.2c0-0.22-0.011-0.45-0.04-0.66l-0.021-0.19
	c-0.03-0.16-0.05-0.31-0.08-0.46l-0.05-0.2c-0.04-0.14-0.08-0.29-0.12-0.43l-0.07-0.19c-0.05-0.14-0.109-0.27-0.159-0.4l-0.03-0.07
	h-0.01C140.64,91.28,138.49,89.8,136,89.8L136,89.8z M148,112h-24c-2.21,0-4-1.79-4-4V84c0-2.21,1.79-4,4-4h24c2.21,0,4,1.79,4,4v24
	C152,110.21,150.21,112,148,112L148,112z"/>
<path id="twitter:hover" sketch:type="MSShapeGroup" fill="#FFFFFF" d="M21.77,123c2.54-0.04,3.891,0.88,5.181,2.06
	c1.1-0.09,2.529-0.71,3.369-1.13l0.82-0.45c-0.479,1.3-1.14,2.31-2.13,3.08c-0.23,0.17-0.45,0.4-0.73,0.51v0.02
	c1.431-0.02,2.601-0.66,3.721-1.01v0.02c-0.59,0.93-1.38,1.88-2.23,2.55l-1.02,0.82c0.02,1.51-0.021,2.95-0.311,4.21
	c-1.64,7.37-5.979,12.38-12.859,14.52c-2.471,0.77-6.46,1.08-9.29,0.38c-1.4-0.35-2.67-0.74-3.86-1.26
	c-0.66-0.29-1.27-0.6-1.85-0.96L0,146.01c0.64,0.021,1.38,0.2,2.1,0.08c0.641-0.1,1.28-0.08,1.87-0.21
	c1.49-0.32,2.81-0.75,3.94-1.42c0.55-0.32,1.39-0.7,1.779-1.16c-0.739,0.01-1.41-0.16-1.949-0.35c-2.131-0.75-3.36-2.13-4.171-4.2
	c0.65,0.07,2.5,0.23,2.931-0.13c-0.811-0.05-1.59-0.52-2.141-0.86c-1.71-1.07-3.109-2.87-3.09-5.62l0.67,0.31
	c0.431,0.19,0.86,0.28,1.38,0.39c0.21,0.04,0.641,0.17,0.891,0.08H4.18c-0.33-0.39-0.87-0.64-1.2-1.06
	c-1.1-1.36-2.12-3.46-1.47-5.95c0.16-0.64,0.42-1.19,0.7-1.71l0.03,0.02c0.13,0.26,0.409,0.46,0.59,0.68
	c0.56,0.7,1.26,1.32,1.96,1.87c2.399,1.87,4.56,3.03,8.02,3.88c0.88,0.22,1.9,0.38,2.95,0.38c-0.3-0.86-0.2-2.25,0.03-3.08
	c0.59-2.09,1.859-3.6,3.72-4.41c0.44-0.19,0.94-0.33,1.45-0.44L21.77,123L21.77,123z"/>
<path id="twitter" sketch:type="MSShapeGroup" fill="#72864B" d="M21.77,83c2.54-0.04,3.891,0.88,5.181,2.06
	c1.1-0.09,2.529-0.71,3.369-1.13l0.82-0.45c-0.479,1.3-1.14,2.31-2.13,3.08c-0.23,0.17-0.45,0.4-0.73,0.51v0.02
	c1.431-0.02,2.601-0.66,3.721-1.01v0.02c-0.59,0.93-1.38,1.88-2.23,2.55l-1.02,0.82c0.02,1.51-0.021,2.95-0.311,4.21
	c-1.64,7.37-5.979,12.38-12.859,14.52c-2.471,0.77-6.46,1.08-9.29,0.38c-1.4-0.35-2.67-0.74-3.86-1.26
	c-0.66-0.29-1.27-0.6-1.85-0.96L0,106.01c0.64,0.021,1.38,0.2,2.1,0.08c0.641-0.1,1.28-0.08,1.87-0.21
	c1.49-0.32,2.81-0.75,3.94-1.42c0.55-0.32,1.39-0.7,1.779-1.16c-0.739,0.01-1.41-0.16-1.949-0.35c-2.131-0.75-3.36-2.13-4.171-4.2
	c0.65,0.07,2.5,0.23,2.931-0.13C5.69,98.57,4.91,98.1,4.36,97.76c-1.71-1.07-3.109-2.87-3.09-5.62l0.67,0.31
	c0.431,0.19,0.86,0.28,1.38,0.39c0.21,0.04,0.641,0.17,0.891,0.08H4.18c-0.33-0.39-0.87-0.64-1.2-1.06
	c-1.1-1.36-2.12-3.46-1.47-5.95c0.16-0.64,0.42-1.19,0.7-1.71l0.03,0.02c0.13,0.26,0.409,0.46,0.59,0.68
	c0.56,0.7,1.26,1.32,1.96,1.87c2.399,1.87,4.56,3.03,8.02,3.88c0.88,0.22,1.9,0.38,2.95,0.38c-0.3-0.86-0.2-2.25,0.03-3.08
	c0.59-2.09,1.859-3.6,3.72-4.41c0.44-0.19,0.94-0.33,1.45-0.44L21.77,83L21.77,83z"/>
<path id="facebook:hover" sketch:type="MSShapeGroup" fill="#FFFFFF" d="M53.64,126.17c-1.46,0-2.88,0.24-3.83,0.7
	c-0.96,0.47-1.92,1.29-2.28,2.04c-0.35,0.74-0.529,1.64-0.529,3.15V133h-2v4h2v12h5v-12h3.189l1.271-4H52v-1.35
	c0-0.91,0.17-1.04,0.5-1.36c0.33-0.32,1.37-0.51,2.13-0.51c0.78,0,1.399,0.36,2.18,0.82l0.931-3.53
	C56.3,126.67,55.13,126.17,53.64,126.17L53.64,126.17z M69.54,152H42.46c-1.36,0-2.46-1-2.46-2.36v-27.17c0-1.37,1.1-2.47,2.46-2.47
	h27.08c1.359,0,2.46,1.1,2.46,2.47v27.17C72,151,70.9,152,69.54,152L69.54,152z"/>
<path id="facebook" sketch:type="MSShapeGroup" fill="#72864B" d="M53.64,86.17c-1.46,0-2.88,0.24-3.83,0.7
	c-0.96,0.47-1.92,1.29-2.28,2.04C47.18,89.65,47,90.55,47,92.06V93h-2v4h2v12h5V97h3.189l1.271-4H52v-1.35
	c0-0.91,0.17-1.04,0.5-1.36c0.33-0.32,1.37-0.51,2.13-0.51c0.78,0,1.399,0.36,2.18,0.82l0.931-3.53
	C56.3,86.67,55.13,86.17,53.64,86.17L53.64,86.17z M69.54,112H42.46c-1.36,0-2.46-1-2.46-2.36V82.47C40,81.1,41.1,80,42.46,80h27.08
	C70.9,80,72,81.1,72,82.47v27.17C72,111,70.9,112,69.54,112L69.54,112z"/>
<path id="home" sketch:type="MSShapeGroup" opacity="0.8" fill="#FFFFFF" enable-background="new    " d="M15,169.377v6.461H9
	v-4.308H7v4.308H5v-6.461H3L10,162l6.99,7.377H15z"/>
<path id="location" sketch:type="MSShapeGroup" opacity="0.8" fill="#FFFFFF" enable-background="new    " d="M30,162
	c-3.316,0-6,2.56-6,5.7c0,2.98,2.716,6.81,4.527,8.68c0.687,0.7,1.473,1.64,1.473,1.64s0.851-0.95,1.582-1.67
	c1.811-1.79,4.418-5.38,4.418-8.65C36,164.56,33.317,162,30,162L30,162z M30,170.26c-1.495,0-2.717-1.15-2.717-2.58
	c0-1.42,1.222-2.57,2.717-2.57c1.494,0,2.716,1.15,2.716,2.57C32.716,169.11,31.494,170.26,30,170.26L30,170.26z"/>
<path id="location_1_" sketch:type="MSShapeGroup" fill="#72864B" d="M130,162c-3.316,0-6,2.56-6,5.7c0,2.98,2.716,6.81,4.527,8.68
	c0.687,0.7,1.473,1.64,1.473,1.64s0.851-0.95,1.582-1.67c1.811-1.79,4.418-5.38,4.418-8.65C136,164.56,133.317,162,130,162L130,162z
	 M130,170.26c-1.495,0-2.717-1.15-2.717-2.58c0-1.42,1.222-2.57,2.717-2.57c1.494,0,2.716,1.15,2.716,2.57
	C132.716,169.11,131.494,170.26,130,170.26L130,170.26z"/>
<path id="search--large" sketch:type="MSShapeGroup" fill="#FFFFFF" d="M210.28,97.84c-3.06,0-5.539-2.49-5.539-5.55
	c0-3.05,2.479-5.54,5.539-5.54c3.051,0,5.53,2.49,5.53,5.54C215.81,95.35,213.33,97.84,210.28,97.84L210.28,97.84z M219.51,98.37
	c-0.31-0.31-0.41-0.88-0.23-1.28c0,0,1.28-2.76,1.28-4.8c0-5.68-4.6-10.29-10.28-10.29C204.6,82,200,86.61,200,92.29
	c0,5.69,4.6,10.3,10.279,10.3c2.03,0,4.79-1.28,4.79-1.28c0.391-0.18,0.971-0.08,1.271,0.23l7.87,7.88c0.31,0.3,0.81,0.3,1.12,0
	l2.05-2.05c0.3-0.31,0.3-0.82,0-1.12L219.51,98.37L219.51,98.37z"/>
<path id="close" sketch:type="MSShapeGroup" fill="#FFFFFF" d="M151.136,171.688l-0.027,0.02l-1.205,1.2l5.073,5.09
	c0.536,0.53,1.411,0.53,1.948,0l0.479-0.49c0.537-0.53,0.537-1.41,0-1.94l-5.327-5.34l5.327-5.4c0.537-0.53,0.537-1.4,0-1.94
	l-0.479-0.49c-0.537-0.53-1.412-0.53-1.948,0l-5.073,5.13l1.205,1.21l0.027,0.02l0.49,0.49c0.264,0.27,0.395,0.62,0.395,0.98
	c0,0.35-0.131,0.7-0.395,0.97L151.136,171.688L151.136,171.688z M151.109,168.737l-1.205-1.21l-1.205,1.21l-0.028,0.02l-0.489,0.49
	c-0.264,0.27-0.396,0.62-0.396,0.98c0,0.35,0.132,0.7,0.396,0.97l0.489,0.49l0.028,0.02l1.205,1.2l1.205-1.2l0.027-0.02l0.49-0.49
	c0.264-0.27,0.395-0.62,0.395-0.97c0-0.36-0.131-0.71-0.395-0.98l-0.49-0.49L151.109,168.737L151.109,168.737z M144.83,177.998
	l5.073-5.09l-1.205-1.2l-0.028-0.02l-0.489-0.49c-0.264-0.27-0.396-0.62-0.396-0.97c0-0.36,0.132-0.71,0.396-0.98l0.489-0.49
	l0.028-0.02l1.205-1.21l-5.073-5.13c-0.536-0.53-1.411-0.53-1.948,0l-0.479,0.49c-0.537,0.54-0.537,1.41,0,1.94l5.327,5.4
	l-5.327,5.34c-0.537,0.53-0.537,1.41,0,1.94l0.479,0.49C143.419,178.527,144.294,178.527,144.83,177.998L144.83,177.998z"/>
<path id="Shape_15_" sketch:type="MSShapeGroup" fill="#72864B" d="M183,160h16v2h-16V160L183,160z M183,166h14v2h-14V166L183,166z
	 M183,163h11v2h-11V163L183,163z M180,160h2v2h-2V160L180,160z M180,163h2v2h-2V163L180,163z M180,166h2v2h-2V166L180,166z"/>
<path id="Shape_16_" sketch:type="MSShapeGroup" fill="#A5AF7A" d="M163,160h16v2h-16V160L163,160z M163,166h14v2h-14V166L163,166z
	 M163,163h11v2h-11V163L163,163z M160,160h2v2h-2V160L160,160z M160,163h2v2h-2V163L160,163z M160,166h2v2h-2V166L160,166z"/>
<path id="sub-categories" sketch:type="MSShapeGroup" fill="#FFFFFF" fill-opacity="0.7" d="M23.596,345.544
	c-0.023,0.037-0.047,0.066-0.072,0.089c-0.024,0.023-0.057,0.041-0.096,0.055c-0.038,0.014-0.09,0.023-0.153,0.027
	c-0.064,0.004-0.146,0.007-0.246,0.007c-0.114,0-0.205-0.007-0.273-0.021s-0.12-0.034-0.154-0.062s-0.05-0.059-0.048-0.096
	c0.003-0.037,0.018-0.078,0.045-0.123l1.456-2.557l-1.463-2.55c-0.027-0.045-0.042-0.088-0.045-0.126
	c-0.002-0.039,0.013-0.073,0.045-0.103c0.031-0.03,0.082-0.051,0.15-0.065S22.901,340,23.015,340c0.1,0,0.181,0.002,0.242,0.007
	s0.113,0.014,0.154,0.027s0.072,0.032,0.096,0.055c0.022,0.023,0.048,0.052,0.075,0.089l1.504,2.413
	c0.063,0.105,0.096,0.203,0.096,0.294s-0.034,0.189-0.103,0.294L23.596,345.544z M21.094,345.414
	c-0.023,0.037-0.046,0.066-0.068,0.089c-0.023,0.023-0.055,0.04-0.096,0.051s-0.094,0.02-0.157,0.024
	c-0.064,0.004-0.148,0.007-0.253,0.007c-0.119,0-0.213-0.006-0.284-0.017c-0.07-0.011-0.123-0.03-0.157-0.055
	s-0.051-0.055-0.051-0.089s0.016-0.074,0.048-0.12l1.47-2.427l-1.504-2.468c-0.027-0.045-0.041-0.084-0.041-0.116
	s0.017-0.059,0.051-0.082s0.087-0.041,0.157-0.055c0.071-0.014,0.165-0.021,0.284-0.021c0.1,0,0.184,0.002,0.249,0.007
	c0.066,0.004,0.119,0.014,0.157,0.027c0.039,0.014,0.071,0.031,0.096,0.051c0.025,0.021,0.049,0.049,0.072,0.085l1.497,2.297
	c0.063,0.096,0.096,0.188,0.096,0.277s-0.034,0.184-0.103,0.284L21.094,345.414z"/>
<path id="categories" sketch:type="MSShapeGroup" fill="#FFFFFF" fill-opacity="0.7" d="M4.63,306.128
	c-0.029,0.044-0.06,0.082-0.092,0.113s-0.077,0.056-0.137,0.073c-0.059,0.017-0.133,0.031-0.224,0.041s-0.208,0.015-0.35,0.015
	c-0.182,0-0.327-0.008-0.435-0.026c-0.108-0.017-0.188-0.044-0.243-0.081c-0.054-0.037-0.082-0.079-0.084-0.128
	c-0.003-0.049,0.011-0.105,0.04-0.169l1.436-2.749l-1.473-2.807c-0.034-0.064-0.05-0.121-0.048-0.172
	c0.003-0.051,0.03-0.094,0.081-0.128c0.052-0.034,0.132-0.061,0.239-0.081C3.45,300.01,3.597,300,3.783,300
	c0.143,0,0.259,0.005,0.35,0.015s0.165,0.023,0.221,0.04c0.057,0.018,0.103,0.042,0.137,0.074s0.063,0.069,0.088,0.113l1.648,2.683
	c0.064,0.103,0.095,0.208,0.093,0.315c-0.003,0.107-0.043,0.225-0.122,0.352L4.63,306.128z M1.65,305.981
	c-0.029,0.044-0.061,0.081-0.092,0.11c-0.032,0.029-0.078,0.052-0.137,0.069s-0.132,0.029-0.221,0.037
	c-0.088,0.007-0.203,0.011-0.346,0.011c-0.182,0-0.326-0.007-0.435-0.022c-0.107-0.015-0.188-0.038-0.242-0.07
	c-0.055-0.032-0.083-0.072-0.085-0.121c-0.003-0.049,0.014-0.105,0.048-0.168l1.398-2.602l-1.494-2.705
	c-0.034-0.059-0.049-0.109-0.044-0.15s0.033-0.077,0.084-0.106c0.052-0.029,0.133-0.051,0.243-0.066s0.257-0.022,0.438-0.022
	c0.143,0,0.259,0.002,0.35,0.007s0.165,0.016,0.222,0.033c0.056,0.017,0.101,0.039,0.132,0.066c0.032,0.027,0.063,0.06,0.092,0.099
	l1.627,2.543c0.063,0.098,0.095,0.199,0.092,0.304c-0.002,0.105-0.043,0.222-0.121,0.349L1.65,305.981z"/>
<path id="arrow-up" sketch:type="MSShapeGroup" opacity="0.8" fill="#FFFFFF" enable-background="new    " d="M49.24,167.17
	l-0.011,0.02l-3.22,3.37c-0.28,0.28-0.28,0.75,0,1.04l0.25,0.26c0.27,0.29,0.72,0.29,1,0l2.73-2.86l2.77,2.86
	c0.27,0.29,0.72,0.29,1,0L54,171.6c0.279-0.29,0.279-0.76,0-1.04l-3.24-3.37l-0.02-0.02l-0.25-0.26c-0.131-0.15-0.311-0.22-0.5-0.22
	c-0.181,0-0.36,0.07-0.5,0.22L49.24,167.17L49.24,167.17z M58.33,170c0,4.59-3.74,8.33-8.33,8.33s-8.33-3.74-8.33-8.33
	s3.74-8.33,8.33-8.33S58.33,165.41,58.33,170L58.33,170z M40,170c0,5.52,4.479,10,10,10c5.52,0,10-4.48,10-10s-4.48-10-10-10
	C44.48,160,40,164.48,40,170L40,170z"/>
<path id="arrow-down" sketch:type="MSShapeGroup" opacity="0.8" fill="#FFFFFF" enable-background="new    " d="M69.24,172.83
	l-0.011-0.02l-3.22-3.37c-0.28-0.28-0.28-0.75,0-1.04l0.25-0.26c0.27-0.29,0.72-0.29,1,0l2.73,2.86l2.77-2.86
	c0.27-0.29,0.72-0.29,1,0L74,168.4c0.279,0.29,0.279,0.76,0,1.04l-3.24,3.37l-0.02,0.02l-0.25,0.26c-0.131,0.15-0.311,0.22-0.5,0.22
	c-0.181,0-0.36-0.07-0.5-0.22L69.24,172.83L69.24,172.83z M78.33,170c0-4.59-3.74-8.33-8.33-8.33s-8.33,3.74-8.33,8.33
	s3.74,8.33,8.33,8.33S78.33,174.59,78.33,170L78.33,170z M60,170c0-5.52,4.479-10,10-10c5.52,0,10,4.48,10,10s-4.48,10-10,10
	C64.48,180,60,175.52,60,170L60,170z"/>
<path id="arrow-right" sketch:type="MSShapeGroup" opacity="0.8" fill="#FFFFFF" enable-background="new    " d="M112.83,170.76
	l-0.021,0.01l-3.37,3.22c-0.279,0.28-0.75,0.28-1.04,0l-0.26-0.25c-0.29-0.271-0.29-0.72,0-1l2.86-2.73l-2.86-2.77
	c-0.29-0.271-0.29-0.72,0-1l0.26-0.24c0.29-0.28,0.761-0.28,1.04,0l3.37,3.24l0.021,0.02l0.26,0.25c0.15,0.13,0.22,0.31,0.22,0.5
	c0,0.18-0.069,0.36-0.22,0.5L112.83,170.76L112.83,170.76z M110,161.67c-4.59,0-8.33,3.74-8.33,8.33s3.74,8.33,8.33,8.33
	s8.33-3.74,8.33-8.33S114.59,161.67,110,161.67L110,161.67z M110,180c-5.521,0-10-4.48-10-10s4.479-10,10-10c5.52,0,10,4.48,10,10
	S115.52,180,110,180L110,180z"/>
<path id="arrow-left" sketch:type="MSShapeGroup" opacity="0.8" fill="#FFFFFF" enable-background="new    " d="M87.17,170.76
	l0.02,0.01l3.37,3.22c0.28,0.28,0.75,0.28,1.04,0l0.26-0.25c0.29-0.271,0.29-0.72,0-1L89,170.01l2.859-2.77
	c0.29-0.271,0.29-0.72,0-1L91.6,166c-0.29-0.28-0.76-0.28-1.04,0l-3.37,3.24l-0.02,0.02l-0.26,0.25c-0.15,0.13-0.221,0.31-0.221,0.5
	c0,0.18,0.07,0.36,0.221,0.5L87.17,170.76L87.17,170.76z M90,161.67c4.59,0,8.33,3.74,8.33,8.33s-3.74,8.33-8.33,8.33
	s-8.33-3.74-8.33-8.33S85.41,161.67,90,161.67L90,161.67z M90,180c5.52,0,10-4.48,10-10s-4.48-10-10-10c-5.521,0-10,4.48-10,10
	S84.48,180,90,180L90,180z"/>
<g id="button" opacity="0.6" filter="url(#filter-1)" enable-background="new    ">
	<path fill="#E6E6E6" d="M122,240h36c1.104,0,2,0.896,2,2v36c0,1.104-0.896,2-2,2h-36c-1.104,0-2-0.896-2-2v-36
		C120,240.896,120.896,240,122,240z"/>
	<path opacity="0.7" fill="none" stroke="#FFFFFF" d="M122,240h36c1.104,0,2,0.896,2,2v36c0,1.104-0.896,2-2,2h-36
		c-1.104,0-2-0.896-2-2v-36C120,240.896,120.896,240,122,240z"/>
</g>
<path id="arrow" fill="#141414" d="M143.4,260.91l-0.02,0.01l-4.05,3.87c-0.34,0.33-0.9,0.33-1.25,0l-0.311-0.3
	c-0.35-0.33-0.35-0.87,0-1.2l3.44-3.28l-3.44-3.32c-0.35-0.33-0.35-0.87,0-1.2l0.311-0.3c0.35-0.33,0.91-0.33,1.25,0l4.05,3.9
	l0.02,0.02l0.311,0.3c0.17,0.16,0.26,0.38,0.26,0.6c0,0.21-0.09,0.43-0.26,0.6L143.4,260.91L143.4,260.91z"/>
<g id="button_1_" opacity="0.6" filter="url(#filter-2)" enable-background="new    ">
	<path fill="#E6E6E6" d="M122,200h36c1.104,0,2,0.896,2,2v36c0,1.104-0.896,2-2,2h-36c-1.104,0-2-0.896-2-2v-36
		C120,200.896,120.896,200,122,200z"/>
	<path opacity="0.7" fill="none" stroke="#FFFFFF" d="M122,200h36c1.104,0,2,0.896,2,2v36c0,1.104-0.896,2-2,2h-36
		c-1.104,0-2-0.896-2-2v-36C120,200.896,120.896,200,122,200z"/>
</g>
<path id="arrow_1_" fill="#72864B" d="M143.4,220.91l-0.02,0.01l-4.05,3.87c-0.34,0.33-0.9,0.33-1.25,0l-0.311-0.3
	c-0.35-0.33-0.35-0.87,0-1.2l3.44-3.28l-3.44-3.32c-0.35-0.33-0.35-0.87,0-1.2l0.311-0.3c0.35-0.33,0.91-0.33,1.25,0l4.05,3.9
	l0.02,0.02l0.311,0.3c0.17,0.16,0.26,0.38,0.26,0.6c0,0.21-0.09,0.43-0.26,0.6L143.4,220.91L143.4,220.91z"/>
<g id="button_2_" opacity="0.6" filter="url(#filter-3)" enable-background="new    ">
	<path fill="#E6E6E6" d="M82,240h36c1.104,0,2,0.896,2,2v36c0,1.104-0.896,2-2,2H82c-1.104,0-2-0.896-2-2v-36
		C80,240.896,80.896,240,82,240z"/>
	<path opacity="0.7" fill="none" stroke="#FFFFFF" d="M82,240h36c1.104,0,2,0.896,2,2v36c0,1.104-0.896,2-2,2H82
		c-1.104,0-2-0.896-2-2v-36C80,240.896,80.896,240,82,240z"/>
</g>
<path id="arrow_2_" fill="#141414" d="M96.6,260.91l0.021,0.01l4.05,3.87c0.34,0.33,0.899,0.33,1.25,0l0.31-0.3
	c0.351-0.33,0.351-0.87,0-1.2l-3.439-3.28l3.439-3.32c0.351-0.33,0.351-0.87,0-1.2l-0.31-0.3c-0.351-0.33-0.91-0.33-1.25,0
	l-4.05,3.9l-0.021,0.02l-0.31,0.3c-0.17,0.16-0.261,0.38-0.261,0.6c0,0.21,0.091,0.43,0.261,0.6L96.6,260.91L96.6,260.91z"/>
<g id="button_3_" opacity="0.6" filter="url(#filter-4)" enable-background="new    ">
	<path fill="#E6E6E6" d="M82,200h36c1.104,0,2,0.896,2,2v36c0,1.104-0.896,2-2,2H82c-1.104,0-2-0.896-2-2v-36
		C80,200.896,80.896,200,82,200z"/>
	<path opacity="0.7" fill="none" stroke="#FFFFFF" d="M82,200h36c1.104,0,2,0.896,2,2v36c0,1.104-0.896,2-2,2H82
		c-1.104,0-2-0.896-2-2v-36C80,200.896,80.896,200,82,200z"/>
</g>
<path id="arrow_3_" fill="#72864B" d="M96.6,220.91l0.021,0.01l4.05,3.87c0.34,0.33,0.899,0.33,1.25,0l0.31-0.3
	c0.351-0.33,0.351-0.87,0-1.2l-3.439-3.28l3.439-3.32c0.351-0.33,0.351-0.87,0-1.2l-0.31-0.3c-0.351-0.33-0.91-0.33-1.25,0
	l-4.05,3.9l-0.021,0.02l-0.31,0.3c-0.17,0.16-0.261,0.38-0.261,0.6c0,0.21,0.091,0.43,0.261,0.6L96.6,220.91L96.6,220.91z"/>
<circle id="active" fill="#72864B" cx="175" cy="225" r="4"/>
<circle id="hover" fill="#FFFFFF" stroke="#72864B" cx="175" cy="215" r="4"/>
<circle id="static" fill="#FFFFFF" stroke="#72864B" cx="175" cy="205" r="4"/>
<path id="menu-mega:active" sketch:type="MSShapeGroup" fill="#72864B" d="M404.375,127h-18.75c-0.342,0-0.625-0.136-0.625-0.308
	v-1.372c0-0.176,0.283-0.32,0.625-0.32h18.75c0.341,0,0.625,0.144,0.625,0.32v1.372C405,126.86,404.716,127,404.375,127L404.375,127
	z M404.375,131h-18.75c-0.342,0-0.625-0.136-0.625-0.308v-1.372c0-0.176,0.283-0.32,0.625-0.32h18.75
	c0.341,0,0.625,0.144,0.625,0.32v1.372C405,130.86,404.716,131,404.375,131L404.375,131z M404.375,135h-18.75
	c-0.342,0-0.625-0.136-0.625-0.308v-1.372c0-0.176,0.283-0.32,0.625-0.32h18.75c0.341,0,0.625,0.144,0.625,0.32v1.372
	C405,134.86,404.716,135,404.375,135L404.375,135z"/>
<g id="menu-mega:hover" transform="translate(340.000000, 0.000000)" sketch:type="MSShapeGroup">
	<rect id="Rectangle-9-copy" x="0" y="120" opacity="0.5" fill="#A5AF7A" enable-background="new    " width="30" height="60"/>
	<path id="Shape_17_" fill="#A5AF7A" d="M24.375,127H5.625C5.283,127,5,126.864,5,126.692v-1.372c0-0.176,0.283-0.32,0.625-0.32
		h18.75c0.341,0,0.625,0.144,0.625,0.32v1.372C25,126.86,24.716,127,24.375,127L24.375,127z M24.375,131H5.625
		C5.283,131,5,130.864,5,130.692v-1.372c0-0.176,0.283-0.32,0.625-0.32h18.75c0.341,0,0.625,0.144,0.625,0.32v1.372
		C25,130.86,24.716,131,24.375,131L24.375,131z M24.375,135H5.625C5.283,135,5,134.864,5,134.692v-1.372
		c0-0.176,0.283-0.32,0.625-0.32h18.75c0.341,0,0.625,0.144,0.625,0.32v1.372C25,134.86,24.716,135,24.375,135L24.375,135z"/>
</g>
<path id="menu-mega" sketch:type="MSShapeGroup" fill="#A5AF7A" d="M324.375,127h-18.75c-0.342,0-0.625-0.136-0.625-0.308v-1.372
	c0-0.176,0.283-0.32,0.625-0.32h18.75c0.341,0,0.625,0.144,0.625,0.32v1.372C325,126.86,324.716,127,324.375,127L324.375,127z
	 M324.375,130h-18.75c-0.342,0-0.625-0.136-0.625-0.308v-1.372c0-0.176,0.283-0.32,0.625-0.32h18.75c0.341,0,0.625,0.144,0.625,0.32
	v1.372C325,129.86,324.716,130,324.375,130L324.375,130z M324.375,133h-18.75c-0.342,0-0.625-0.136-0.625-0.308v-1.372
	c0-0.176,0.283-0.32,0.625-0.32h18.75c0.341,0,0.625,0.144,0.625,0.32v1.372C325,132.86,324.716,133,324.375,133L324.375,133z"/>
<path id="menu-mobile" sketch:type="MSShapeGroup" fill="#FFFFFF" d="M23.25,235H0.75C0.34,235,0,234.66,0,234.23v-3.43
	c0-0.44,0.34-0.8,0.75-0.8h22.5c0.41,0,0.75,0.36,0.75,0.8v3.43C24,234.65,23.66,235,23.25,235L23.25,235z M23.25,243H0.75
	C0.34,243,0,242.66,0,242.23v-3.43c0-0.44,0.34-0.8,0.75-0.8h22.5c0.41,0,0.75,0.36,0.75,0.8v3.43C24,242.65,23.66,243,23.25,243
	L23.25,243z M23.25,251H0.75C0.34,251,0,250.66,0,250.23v-3.43c0-0.44,0.34-0.8,0.75-0.8h22.5c0.41,0,0.75,0.36,0.75,0.8v3.43
	C24,250.65,23.66,251,23.25,251L23.25,251z"/>
<g id="forms" transform="translate(255.000000, 137.000000)" sketch:type="MSLayerGroup">
	<g id="select" sketch:type="MSShapeGroup">
		<path id="arrow:hover" fill="#FFFFFF" d="M4.127,45.893l-0.01-0.02l-3.87-4.05c-0.33-0.34-0.33-0.9,0-1.25l0.3-0.31
			c0.33-0.35,0.87-0.35,1.2,0l3.28,3.44l3.32-3.44c0.33-0.35,0.869-0.35,1.199,0l0.301,0.31c0.329,0.35,0.329,0.91,0,1.25l-3.9,4.05
			l-0.02,0.02l-0.301,0.31c-0.16,0.17-0.38,0.26-0.6,0.26c-0.21,0-0.43-0.09-0.6-0.26L4.127,45.893L4.127,45.893z"/>
		<path id="arrow_4_" fill="#8C8C8C" d="M4.127,5.893l-0.01-0.02l-3.87-4.05c-0.33-0.34-0.33-0.9,0-1.25l0.3-0.31
			c0.33-0.35,0.87-0.35,1.2,0l3.28,3.44l3.32-3.44c0.33-0.35,0.869-0.35,1.199,0l0.301,0.31c0.329,0.35,0.329,0.91,0,1.25l-3.9,4.05
			l-0.02,0.02l-0.301,0.31c-0.16,0.17-0.38,0.26-0.6,0.26c-0.21,0-0.43-0.09-0.6-0.26L4.127,5.893L4.127,5.893z"/>
	</g>
</g>
<path id="active_1_" sketch:type="MSShapeGroup" fill="#FFFFFF" d="M399.24,542.17l-0.01,0.021l-3.22,3.369
	c-0.28,0.28-0.28,0.75,0,1.04l0.25,0.261c0.27,0.29,0.72,0.29,1,0l2.729-2.86l2.771,2.86c0.27,0.29,0.72,0.29,1,0L404,546.6
	c0.279-0.29,0.279-0.76,0-1.04l-3.24-3.369l-0.021-0.021l-0.25-0.26c-0.13-0.15-0.31-0.22-0.5-0.22c-0.18,0-0.359,0.069-0.5,0.22
	L399.24,542.17L399.24,542.17z M408.329,545c0,4.59-3.739,8.33-8.329,8.33c-4.591,0-8.33-3.74-8.33-8.33s3.739-8.33,8.33-8.33
	C404.59,536.67,408.329,540.41,408.329,545L408.329,545z M390,545c0,5.52,4.479,10,10,10c5.52,0,10-4.48,10-10s-4.48-10-10-10
	C394.48,535,390,539.48,390,545L390,545z"/>
<path id="static:hover" sketch:type="MSShapeGroup" fill="#A5AF7A" d="M399.24,497.83l-0.01-0.021l-3.22-3.369
	c-0.28-0.28-0.28-0.75,0-1.04l0.25-0.261c0.27-0.29,0.72-0.29,1,0l2.729,2.86l2.771-2.86c0.27-0.29,0.72-0.29,1,0L404,493.4
	c0.279,0.29,0.279,0.76,0,1.04l-3.24,3.369l-0.021,0.021l-0.25,0.26c-0.13,0.15-0.31,0.22-0.5,0.22c-0.18,0-0.359-0.069-0.5-0.22
	L399.24,497.83L399.24,497.83z M408.329,495c0-4.59-3.739-8.33-8.329-8.33c-4.591,0-8.33,3.74-8.33,8.33s3.739,8.33,8.33,8.33
	C404.59,503.33,408.329,499.59,408.329,495L408.329,495z M390,495c0-5.52,4.479-10,10-10c5.52,0,10,4.48,10,10s-4.48,10-10,10
	C394.48,505,390,500.52,390,495L390,495z"/>
<path id="static_1_" sketch:type="MSShapeGroup" fill="#141414" d="M399.24,447.83l-0.01-0.021l-3.22-3.369
	c-0.28-0.28-0.28-0.75,0-1.04l0.25-0.261c0.27-0.29,0.72-0.29,1,0l2.729,2.86l2.771-2.86c0.27-0.29,0.72-0.29,1,0L404,443.4
	c0.279,0.29,0.279,0.76,0,1.04l-3.24,3.369l-0.021,0.021l-0.25,0.26c-0.13,0.15-0.31,0.22-0.5,0.22c-0.18,0-0.359-0.069-0.5-0.22
	L399.24,447.83L399.24,447.83z M408.329,445c0-4.59-3.739-8.33-8.329-8.33c-4.591,0-8.33,3.74-8.33,8.33s3.739,8.33,8.33,8.33
	C404.59,453.33,408.329,449.59,408.329,445L408.329,445z M390,445c0-5.52,4.479-10,10-10c5.52,0,10,4.48,10,10s-4.48,10-10,10
	C394.48,455,390,450.52,390,445L390,445z"/>
<path id="active_2_" sketch:type="MSShapeGroup" fill="#FFFFFF" d="M402.829,705.76l-0.02,0.01l-3.37,3.221
	c-0.28,0.279-0.75,0.279-1.04,0l-0.26-0.25c-0.29-0.271-0.29-0.721,0-1l2.86-2.73l-2.86-2.77c-0.29-0.271-0.29-0.721,0-1l0.26-0.24
	c0.29-0.28,0.76-0.28,1.04,0l3.37,3.24l0.02,0.02l0.261,0.25c0.149,0.13,0.22,0.311,0.22,0.5c0,0.181-0.07,0.36-0.22,0.5
	L402.829,705.76L402.829,705.76z M400,696.67c-4.591,0-8.33,3.74-8.33,8.33s3.739,8.33,8.33,8.33c4.59,0,8.329-3.74,8.329-8.33
	S404.59,696.67,400,696.67L400,696.67z M400,715c-5.521,0-10-4.48-10-10s4.479-10,10-10c5.52,0,10,4.48,10,10S405.52,715,400,715
	L400,715z"/>
<path id="static:hover_1_" sketch:type="MSShapeGroup" fill="#A5AF7A" d="M402.829,655.76l-0.02,0.01l-3.37,3.221
	c-0.28,0.279-0.75,0.279-1.04,0l-0.26-0.25c-0.29-0.271-0.29-0.721,0-1l2.86-2.73l-2.86-2.77c-0.29-0.271-0.29-0.721,0-1l0.26-0.24
	c0.29-0.28,0.76-0.28,1.04,0l3.37,3.24l0.02,0.02l0.261,0.25c0.149,0.13,0.22,0.311,0.22,0.5c0,0.181-0.07,0.36-0.22,0.5
	L402.829,655.76L402.829,655.76z M400,646.67c-4.591,0-8.33,3.74-8.33,8.33s3.739,8.33,8.33,8.33c4.59,0,8.329-3.74,8.329-8.33
	S404.59,646.67,400,646.67L400,646.67z M400,665c-5.521,0-10-4.48-10-10s4.479-10,10-10c5.52,0,10,4.48,10,10S405.52,665,400,665
	L400,665z"/>
<path id="static_2_" sketch:type="MSShapeGroup" fill="#141414" d="M402.829,605.76l-0.02,0.01l-3.37,3.221
	c-0.28,0.279-0.75,0.279-1.04,0l-0.26-0.25c-0.29-0.271-0.29-0.721,0-1l2.86-2.73l-2.86-2.77c-0.29-0.271-0.29-0.721,0-1l0.26-0.24
	c0.29-0.28,0.76-0.28,1.04,0l3.37,3.24l0.02,0.02l0.261,0.25c0.149,0.13,0.22,0.311,0.22,0.5c0,0.181-0.07,0.36-0.22,0.5
	L402.829,605.76L402.829,605.76z M400,596.67c-4.591,0-8.33,3.74-8.33,8.33s3.739,8.33,8.33,8.33c4.59,0,8.329-3.74,8.329-8.33
	S404.59,596.67,400,596.67L400,596.67z M400,615c-5.521,0-10-4.48-10-10s4.479-10,10-10c5.52,0,10,4.48,10,10S405.52,615,400,615
	L400,615z"/>
<g id="collapsible" transform="translate(395.000000, 754.000000)" sketch:type="MSLayerGroup">
	<rect id="active_3_" x="0" y="63" sketch:type="MSShapeGroup" fill="#A5AF7A" width="9" height="3">
	</rect>
	<path id="static_3_" sketch:type="MSShapeGroup" fill="#A5AF7A" d="M3,3V0h3v3h3v3H6v3H3V6H0V3H3z"/>
</g>
<g id="disclaimer" transform="translate(380.000000, 885.000000)" sketch:type="MSLayerGroup">
	<path id="circle" sketch:type="MSShapeGroup" fill="#FFFFFF" d="M9.5,1.587c-4.361,0-7.914,3.553-7.914,7.913
		s3.553,7.913,7.914,7.913c4.36,0,7.913-3.553,7.913-7.913S13.861,1.587,9.5,1.587L9.5,1.587z M9.5,19C4.256,19,0,14.744,0,9.5
		S4.256,0,9.5,0C14.743,0,19,4.256,19,9.5S14.743,19,9.5,19L9.5,19z"/>
	<path id="static_4_" sketch:type="MSShapeGroup" fill="#FFFFFF" d="M8,8V5h3v3h3v3h-3v3H8v-3H5V8H8z"/>
	<path id="circle_1_" sketch:type="MSShapeGroup" fill="#FFFFFF" d="M9.5,31.587c-4.361,0-7.914,3.553-7.914,7.913
		s3.553,7.913,7.914,7.913c4.36,0,7.913-3.553,7.913-7.913S13.861,31.587,9.5,31.587L9.5,31.587z M9.5,49C4.256,49,0,44.744,0,39.5
		S4.256,30,9.5,30c5.243,0,9.5,4.256,9.5,9.5S14.743,49,9.5,49L9.5,49z"/>
	<rect id="minus" x="5" y="38" sketch:type="MSShapeGroup" fill="#FFFFFF" width="9" height="3">
	</rect>
</g>
<rect id="Rectangle-20" x="0" y="940" sketch:type="MSShapeGroup" opacity="0.8" fill="#FFFFFF" enable-background="new    " width="420" height="40">
</rect>
<path id="active_4_" sketch:type="MSShapeGroup" fill="#FFFFFF" d="M406.93,990.378l-0.008,0.015l-2.415,2.527
	c-0.21,0.21-0.21,0.563,0,0.78l0.188,0.194c0.203,0.218,0.54,0.218,0.75,0l2.048-2.145l2.077,2.145c0.203,0.218,0.54,0.218,0.75,0
	l0.181-0.194c0.21-0.218,0.21-0.57,0-0.78l-2.431-2.527l-0.015-0.015l-0.188-0.195c-0.098-0.112-0.232-0.165-0.375-0.165
	c-0.135,0-0.271,0.053-0.375,0.165L406.93,990.378L406.93,990.378z M413.747,992.5c0,3.442-2.805,6.247-6.247,6.247
	c-3.443,0-6.248-2.805-6.248-6.247s2.805-6.247,6.248-6.247C410.943,986.253,413.747,989.058,413.747,992.5L413.747,992.5z
	 M400,992.5c0,4.14,3.359,7.5,7.5,7.5c4.14,0,7.5-3.36,7.5-7.5s-3.36-7.5-7.5-7.5C403.36,985,400,988.36,400,992.5L400,992.5z"/>
<path id="static_5_" sketch:type="MSShapeGroup" fill="#141414" d="M406.93,954.622l-0.008-0.015l-2.415-2.527
	c-0.21-0.21-0.21-0.563,0-0.78l0.188-0.194c0.203-0.218,0.54-0.218,0.75,0l2.048,2.145l2.077-2.145c0.203-0.218,0.54-0.218,0.75,0
	l0.181,0.194c0.21,0.218,0.21,0.57,0,0.78l-2.431,2.527l-0.015,0.015l-0.188,0.195c-0.098,0.112-0.232,0.165-0.375,0.165
	c-0.135,0-0.271-0.053-0.375-0.165L406.93,954.622L406.93,954.622z M413.747,952.5c0-3.442-2.805-6.247-6.247-6.247
	c-3.443,0-6.248,2.805-6.248,6.247s2.805,6.247,6.248,6.247C410.943,958.747,413.747,955.942,413.747,952.5L413.747,952.5z
	 M400,952.5c0-4.14,3.359-7.5,7.5-7.5c4.14,0,7.5,3.36,7.5,7.5s-3.36,7.5-7.5,7.5C403.36,960,400,956.64,400,952.5L400,952.5z"/>
<rect id="Rectangle" x="0" y="1020" sketch:type="MSShapeGroup" opacity="0.8" fill="#FFFFFF" enable-background="new    " width="420" height="40">
</rect>
<path id="static_6_" sketch:type="MSShapeGroup" fill="#141414" d="M402.829,1040.76l-0.02,0.01l-3.37,3.221
	c-0.28,0.279-0.75,0.279-1.04,0l-0.26-0.25c-0.29-0.271-0.29-0.721,0-1l2.86-2.73l-2.86-2.77c-0.29-0.271-0.29-0.721,0-1l0.26-0.24
	c0.29-0.28,0.76-0.28,1.04,0l3.37,3.24l0.02,0.02l0.261,0.25c0.149,0.13,0.22,0.311,0.22,0.5c0,0.181-0.07,0.36-0.22,0.5
	L402.829,1040.76L402.829,1040.76z M400,1031.67c-4.591,0-8.33,3.74-8.33,8.33s3.739,8.33,8.33,8.33c4.59,0,8.329-3.74,8.329-8.33
	S404.59,1031.67,400,1031.67L400,1031.67z M400,1050c-5.521,0-10-4.48-10-10s4.479-10,10-10c5.52,0,10,4.48,10,10
	S405.52,1050,400,1050L400,1050z"/>
<g id="connector-arrow-cta" transform="translate(200.000000, 1110.000000)" sketch:type="MSLayerGroup">
	<rect id="Rectangle-23" x="9" y="34" sketch:type="MSShapeGroup" fill="#72864B" width="2" height="16">
	</rect>
	<rect id="Rectangle-23_1_" x="9" sketch:type="MSShapeGroup" fill="#72864B" width="2" height="16">
	</rect>
	<path id="arrow-down_1_" sketch:type="MSShapeGroup" fill="#72864B" d="M9.24,27.83L9.23,27.81L6.01,24.44
		c-0.28-0.28-0.28-0.75,0-1.04l0.25-0.261c0.27-0.29,0.72-0.29,1,0L9.99,26l2.77-2.86c0.27-0.29,0.72-0.29,1,0L14,23.4
		c0.279,0.29,0.279,0.76,0,1.04l-3.24,3.369l-0.02,0.021l-0.25,0.26c-0.131,0.15-0.311,0.22-0.5,0.22c-0.181,0-0.36-0.069-0.5-0.22
		L9.24,27.83L9.24,27.83z M18.33,25c0-4.59-3.74-8.33-8.33-8.33S1.67,20.41,1.67,25s3.74,8.33,8.33,8.33S18.33,29.59,18.33,25
		L18.33,25z M0,25c0-5.52,4.479-10,10-10c5.52,0,10,4.48,10,10s-4.48,10-10,10C4.48,35,0,30.52,0,25L0,25z"/>
</g>
<g id="connector-arrow" transform="translate(200.000000, 1060.000000)" sketch:type="MSLayerGroup">
	<rect id="Rectangle-23_2_" x="9" y="34" sketch:type="MSShapeGroup" fill="#A5AF7A" width="2" height="16">
	</rect>
	<rect id="Rectangle-23_3_" x="9" sketch:type="MSShapeGroup" fill="#A5AF7A" width="2" height="16">
	</rect>
	<path id="arrow-down_2_" sketch:type="MSShapeGroup" fill="#A5AF7A" d="M9.24,27.83L9.23,27.81L6.01,24.44
		c-0.28-0.28-0.28-0.75,0-1.04l0.25-0.261c0.27-0.29,0.72-0.29,1,0L9.99,26l2.77-2.86c0.27-0.29,0.72-0.29,1,0L14,23.4
		c0.279,0.29,0.279,0.76,0,1.04l-3.24,3.369l-0.02,0.021l-0.25,0.26c-0.131,0.15-0.311,0.22-0.5,0.22c-0.181,0-0.36-0.069-0.5-0.22
		L9.24,27.83L9.24,27.83z M18.33,25c0-4.59-3.74-8.33-8.33-8.33S1.67,20.41,1.67,25s3.74,8.33,8.33,8.33S18.33,29.59,18.33,25
		L18.33,25z M0,25c0-5.52,4.479-10,10-10c5.52,0,10,4.48,10,10s-4.48,10-10,10C4.48,35,0,30.52,0,25L0,25z"/>
</g>
</svg>
